<svg width="33" height="33" viewBox="0 0 33 33" fill="none" xmlns="http://www.w3.org/2000/svg">
<path d="M16.0286 5.80859C13.2672 5.80859 11.0286 8.04717 11.0286 10.8086C11.0286 13.57 13.2672 15.8086 16.0286 15.8086C18.7901 15.8086 21.0286 13.57 21.0286 10.8086C21.0286 8.04717 18.7901 5.80859 16.0286 5.80859Z" fill="#F6F4E7"/>
<path d="M10.6953 18.4753C7.93389 18.4753 5.69531 20.7138 5.69531 23.4753V25.0596C5.69531 26.0639 6.42316 26.9203 7.41434 27.0821C13.1194 28.0135 18.9378 28.0135 24.643 27.0821C25.6341 26.9203 26.362 26.0639 26.362 25.0596V23.4753C26.362 20.7138 24.1234 18.4753 21.362 18.4753H20.9075C20.6615 18.4753 20.4171 18.5142 20.1832 18.5905L19.0292 18.9673C17.0795 19.604 14.9778 19.604 13.0281 18.9673L11.8741 18.5905C11.6402 18.5142 11.3958 18.4753 11.1498 18.4753H10.6953Z" fill="#F6F4E7"/>
</svg>
