<svg width="18" height="19" viewBox="0 0 18 19" fill="none" xmlns="http://www.w3.org/2000/svg">
<path d="M2.4375 7.10644C2.4375 4.72472 4.36827 2.79395 6.75 2.79395H12.0096C12.3203 2.79395 12.5721 3.04579 12.5721 3.35645C12.5721 3.66711 12.3203 3.91895 12.0096 3.91895H6.75C4.98959 3.91895 3.5625 5.34604 3.5625 7.10644V12.4366C3.5625 12.7473 3.31066 12.9991 3 12.9991C2.68934 12.9991 2.4375 12.7473 2.4375 12.4366V7.10644Z" fill="#BEB8AA"/>
<path d="M13.8019 5.45139C11.3712 5.17972 8.87882 5.17972 6.44811 5.45139C5.75565 5.52878 5.1992 6.07373 5.11758 6.77155C4.8293 9.23641 4.8293 11.7265 5.11758 14.1913C5.1992 14.8892 5.75565 15.4341 6.44811 15.5115C8.87882 15.7832 11.3712 15.7832 13.8019 15.5115C14.4944 15.4341 15.0508 14.8892 15.1324 14.1913C15.4207 11.7265 15.4207 9.23641 15.1324 6.77155C15.0508 6.07373 14.4944 5.52878 13.8019 5.45139Z" fill="#BEB8AA"/>
</svg>
