<svg width="160" height="160" viewBox="0 0 160 160" fill="none" xmlns="http://www.w3.org/2000/svg">
<path d="M10.8336 27.5657C32.4252 12.8383 62.5741 45.6504 68.1703 60.2101C73.763 74.7606 73.5854 98.846 66.3668 115.081C53.5415 143.925 13.1188 139.852 10.8336 121.686C8.50047 103.14 27.2376 99.9546 42.0163 97.9269C20.7955 79.2724 -19.166 48.0281 10.8336 27.5657Z" fill="#EBE9E2"/>
<path d="M149.164 27.6921C127.573 12.9647 97.4239 45.7768 91.8277 60.3365C86.2351 74.887 86.4127 98.9725 93.6313 115.207C106.457 144.051 146.879 139.978 149.164 121.813C151.498 103.266 132.76 100.081 117.982 98.0534C139.202 79.3989 179.164 48.1545 149.164 27.6921Z" fill="#EBE9E2"/>
</svg>
