<svg width="24" height="25" viewBox="0 0 24 25" fill="none" xmlns="http://www.w3.org/2000/svg">
<path d="M7.28949 5.26394C10.4241 4.99145 13.5765 4.99145 16.7111 5.26394L18.2214 5.39522C19.2267 5.48261 20.0878 6.08228 20.534 6.94006C20.591 7.0498 20.5483 7.18266 20.4431 7.24776L14.1771 11.1267C12.8333 11.9586 11.1387 11.9761 9.77802 11.172L3.4702 7.44465C3.36829 7.38443 3.32151 7.26047 3.36744 7.15137C3.77559 6.1818 4.69322 5.48962 5.77925 5.39522L7.28949 5.26394Z" fill="white"/>
<path d="M3.3623 9.1232C3.20634 9.03104 3.00734 9.13022 2.98916 9.31046C2.73542 11.8261 2.79683 14.3655 3.17339 16.8697C3.3719 18.1898 4.44931 19.2018 5.77926 19.3174L7.28949 19.4487C10.4241 19.7212 13.5765 19.7212 16.7111 19.4487L18.2214 19.3174C19.5513 19.2018 20.6287 18.1898 20.8272 16.8697C21.2148 14.2926 21.2685 11.6781 20.9885 9.0906C20.9688 8.90908 20.7665 8.81173 20.6112 8.90783L14.9667 12.4021C13.1485 13.5276 10.8559 13.5512 9.01493 12.4634L3.3623 9.1232Z" fill="white"/>
</svg>
