<svg width="24" height="25" viewBox="0 0 24 25" fill="none" xmlns="http://www.w3.org/2000/svg">
<g clip-path="url(#clip0_130_741)">
<path d="M12 2.62285C15.2063 2.62285 15.5859 2.63691 16.8469 2.69316C18.0188 2.74473 18.6516 2.9416 19.0734 3.10566C19.6313 3.32129 20.0344 3.58379 20.4516 4.00098C20.8734 4.42285 21.1313 4.82129 21.3469 5.3791C21.5109 5.80098 21.7078 6.43848 21.7594 7.60566C21.8156 8.87129 21.8297 9.25098 21.8297 12.4525C21.8297 15.6588 21.8156 16.0385 21.7594 17.2994C21.7078 18.4713 21.5109 19.1041 21.3469 19.526C21.1313 20.0838 20.8687 20.4869 20.4516 20.9041C20.0297 21.326 19.6313 21.5838 19.0734 21.7994C18.6516 21.9635 18.0141 22.1604 16.8469 22.2119C15.5813 22.2682 15.2016 22.2822 12 22.2822C8.79375 22.2822 8.41406 22.2682 7.15313 22.2119C5.98125 22.1604 5.34844 21.9635 4.92656 21.7994C4.36875 21.5838 3.96563 21.3213 3.54844 20.9041C3.12656 20.4822 2.86875 20.0838 2.65313 19.526C2.48906 19.1041 2.29219 18.4666 2.24063 17.2994C2.18438 16.0338 2.17031 15.6541 2.17031 12.4525C2.17031 9.24629 2.18438 8.8666 2.24063 7.60566C2.29219 6.43379 2.48906 5.80098 2.65313 5.3791C2.86875 4.82129 3.13125 4.41816 3.54844 4.00098C3.97031 3.5791 4.36875 3.32129 4.92656 3.10566C5.34844 2.9416 5.98594 2.74473 7.15313 2.69316C8.41406 2.63691 8.79375 2.62285 12 2.62285ZM12 0.461914C8.74219 0.461914 8.33438 0.475977 7.05469 0.532227C5.77969 0.588477 4.90313 0.794726 4.14375 1.09004C3.35156 1.39941 2.68125 1.80723 2.01563 2.47754C1.34531 3.14316 0.9375 3.81348 0.628125 4.60098C0.332812 5.36504 0.126563 6.23691 0.0703125 7.51191C0.0140625 8.79629 0 9.2041 0 12.4619C0 15.7197 0.0140625 16.1275 0.0703125 17.4072C0.126563 18.6822 0.332812 19.5588 0.628125 20.3182C0.9375 21.1104 1.34531 21.7807 2.01563 22.4463C2.68125 23.1119 3.35156 23.5244 4.13906 23.8291C4.90313 24.1244 5.775 24.3307 7.05 24.3869C8.32969 24.4432 8.7375 24.4572 11.9953 24.4572C15.2531 24.4572 15.6609 24.4432 16.9406 24.3869C18.2156 24.3307 19.0922 24.1244 19.8516 23.8291C20.6391 23.5244 21.3094 23.1119 21.975 22.4463C22.6406 21.7807 23.0531 21.1104 23.3578 20.3229C23.6531 19.5588 23.8594 18.6869 23.9156 17.4119C23.9719 16.1322 23.9859 15.7244 23.9859 12.4666C23.9859 9.20879 23.9719 8.80098 23.9156 7.52129C23.8594 6.24629 23.6531 5.36973 23.3578 4.61035C23.0625 3.81348 22.6547 3.14316 21.9844 2.47754C21.3188 1.81191 20.6484 1.39941 19.8609 1.09473C19.0969 0.799414 18.225 0.593164 16.95 0.536914C15.6656 0.475977 15.2578 0.461914 12 0.461914Z" fill="white"/>
<path d="M12 6.29785C8.59688 6.29785 5.83594 9.05879 5.83594 12.4619C5.83594 15.865 8.59688 18.626 12 18.626C15.4031 18.626 18.1641 15.865 18.1641 12.4619C18.1641 9.05879 15.4031 6.29785 12 6.29785ZM12 16.4604C9.79219 16.4604 8.00156 14.6697 8.00156 12.4619C8.00156 10.2541 9.79219 8.46348 12 8.46348C14.2078 8.46348 15.9984 10.2541 15.9984 12.4619C15.9984 14.6697 14.2078 16.4604 12 16.4604Z" fill="white"/>
<path d="M19.8469 6.0543C19.8469 6.85117 19.2 7.49336 18.4078 7.49336C17.6109 7.49336 16.9688 6.84649 16.9688 6.0543C16.9688 5.25742 17.6156 4.61523 18.4078 4.61523C19.2 4.61523 19.8469 5.26211 19.8469 6.0543Z" fill="white"/>
</g>
<defs>
<clipPath id="clip0_130_741">
<rect width="24" height="24" fill="white" transform="translate(0 0.461914)"/>
</clipPath>
</defs>
</svg>
