<svg width="160" height="161" viewBox="0 0 160 161" fill="none" xmlns="http://www.w3.org/2000/svg">
<path d="M10.8336 28.3117C32.4252 13.5843 62.5741 46.3965 68.1703 60.9562C73.763 75.5067 73.5854 99.5921 66.3668 115.827C53.5415 144.671 13.1188 140.598 10.8336 122.432C8.50047 103.886 27.2376 100.701 42.0163 98.673C20.7955 80.0185 -19.166 48.7742 10.8336 28.3117Z" fill="#313131"/>
<path d="M149.164 28.4387C127.573 13.7113 97.4239 46.5234 91.8277 61.0831C86.2351 75.6336 86.4127 99.7191 93.6313 115.954C106.457 144.798 146.879 140.725 149.164 122.559C151.498 104.013 132.76 100.828 117.982 98.8C139.202 80.1454 179.164 48.9011 149.164 28.4387Z" fill="#313131"/>
</svg>
