<svg width="24" height="25" viewBox="0 0 24 25" fill="none" xmlns="http://www.w3.org/2000/svg">
<g clip-path="url(#clip0_47_478)">
<path d="M22.2234 0.902344H1.77187C0.792187 0.902344 0 1.67578 0 2.63203V23.168C0 24.1242 0.792187 24.9023 1.77187 24.9023H22.2234C23.2031 24.9023 24 24.1242 24 23.1727V2.63203C24 1.67578 23.2031 0.902344 22.2234 0.902344ZM7.12031 21.3539H3.55781V9.89766H7.12031V21.3539ZM5.33906 8.33672C4.19531 8.33672 3.27188 7.41328 3.27188 6.27422C3.27188 5.13516 4.19531 4.21172 5.33906 4.21172C6.47813 4.21172 7.40156 5.13516 7.40156 6.27422C7.40156 7.40859 6.47813 8.33672 5.33906 8.33672ZM20.4516 21.3539H16.8937V15.7852C16.8937 14.4586 16.8703 12.7477 15.0422 12.7477C13.1906 12.7477 12.9094 14.1961 12.9094 15.6914V21.3539H9.35625V9.89766H12.7687V11.4633H12.8156C13.2891 10.5633 14.4516 9.61172 16.1813 9.61172C19.7859 9.61172 20.4516 11.9836 20.4516 15.068V21.3539Z" fill="#EBE9E2"/>
</g>
<defs>
<clipPath id="clip0_47_478">
<rect width="24" height="24" fill="white" transform="translate(0 0.902344)"/>
</clipPath>
</defs>
</svg>
