<svg width="1086" height="174" viewBox="0 0 1086 174" fill="none" xmlns="http://www.w3.org/2000/svg">
<path d="M269.655 142.031C258.85 142.031 249.513 139.671 241.645 134.95C233.882 130.124 227.85 123.463 223.549 114.965C219.248 106.363 217.097 96.3968 217.097 85.067C217.097 73.8421 219.248 63.9809 223.549 55.4835C227.85 46.8813 233.882 40.1673 241.645 35.3416C249.513 30.516 258.85 28.1031 269.655 28.1031C282.244 28.1031 292.472 31.1454 300.34 37.2299C308.313 43.2096 313.401 51.602 315.604 62.4073H300.969C299.291 55.5885 295.829 50.1334 290.584 46.042C285.443 41.8458 278.467 39.7477 269.655 39.7477C261.787 39.7477 254.916 41.5835 249.041 45.2552C243.166 48.822 238.603 54.0149 235.351 60.8338C232.203 67.5477 230.63 75.6255 230.63 85.067C230.63 94.5085 232.203 102.639 235.351 109.458C238.603 116.172 243.166 121.364 249.041 125.036C254.916 128.603 261.787 130.386 269.655 130.386C278.467 130.386 285.443 128.393 290.584 124.407C295.829 120.315 299.291 114.913 300.969 108.199H315.604C313.401 118.794 308.313 127.082 300.34 133.061C292.472 139.041 282.244 142.031 269.655 142.031ZM333.814 140.143V26.8443H347.032V75.4681C349.655 70.6424 353.379 66.9183 358.205 64.2956C363.031 61.5681 368.276 60.2043 373.941 60.2043C382.963 60.2043 390.201 63.0368 395.656 68.7017C401.111 74.2617 403.839 82.864 403.839 94.5085V140.143H390.778V95.9248C390.778 79.6644 384.221 71.5341 371.108 71.5341C364.289 71.5341 358.572 73.9994 353.956 78.93C349.34 83.7557 347.032 90.6795 347.032 99.7014V140.143H333.814ZM423.865 140.143V26.8443H437.083V140.143H423.865ZM494.312 142.031C486.968 142.031 480.359 140.352 474.484 136.995C468.61 133.638 463.941 128.918 460.479 122.833C457.122 116.644 455.444 109.405 455.444 101.118C455.444 92.83 457.175 85.644 460.637 79.5594C464.099 73.37 468.767 68.5968 474.642 65.2398C480.621 61.8828 487.283 60.2043 494.626 60.2043C501.97 60.2043 508.579 61.8828 514.453 65.2398C520.328 68.5968 524.944 73.37 528.301 79.5594C531.763 85.644 533.494 92.83 533.494 101.118C533.494 109.405 531.763 116.644 528.301 122.833C524.839 128.918 520.118 133.638 514.139 136.995C508.264 140.352 501.655 142.031 494.312 142.031ZM494.312 130.701C498.823 130.701 503.019 129.6 506.9 127.397C510.782 125.193 513.929 121.889 516.342 117.483C518.755 113.077 519.961 107.622 519.961 101.118C519.961 94.6134 518.755 89.1583 516.342 84.7523C514.034 80.3462 510.939 77.0417 507.058 74.8387C503.176 72.6357 499.032 71.5341 494.626 71.5341C490.115 71.5341 485.919 72.6357 482.038 74.8387C478.156 77.0417 475.009 80.3462 472.596 84.7523C470.183 89.1583 468.977 94.6134 468.977 101.118C468.977 107.622 470.183 113.077 472.596 117.483C475.009 121.889 478.104 125.193 481.88 127.397C485.762 129.6 489.906 130.701 494.312 130.701ZM586.964 142.031C579.516 142.031 572.907 140.352 567.137 136.995C561.367 133.534 556.803 128.76 553.447 122.676C550.194 116.591 548.568 109.405 548.568 101.118C548.568 92.9349 550.194 85.8013 553.447 79.7168C556.699 73.5274 561.21 68.7541 566.979 65.3972C572.854 61.9353 579.621 60.2043 587.279 60.2043C594.832 60.2043 601.336 61.9353 606.791 65.3972C612.351 68.7541 616.6 73.2126 619.537 78.7727C622.475 84.3327 623.943 90.3123 623.943 96.7116C623.943 97.8655 623.891 99.0195 623.786 100.173C623.786 101.327 623.786 102.639 623.786 104.107H561.629C561.944 110.087 563.308 115.07 565.72 119.057C568.238 122.938 571.333 125.875 575.005 127.869C578.781 129.862 582.768 130.858 586.964 130.858C592.419 130.858 596.982 129.6 600.654 127.082C604.326 124.564 607.001 121.155 608.679 116.853H621.74C619.642 124.092 615.603 130.124 609.624 134.95C603.749 139.671 596.196 142.031 586.964 142.031ZM586.964 71.3768C580.67 71.3768 575.057 73.3175 570.127 77.1991C565.301 80.9757 562.521 86.5357 561.787 93.8791H610.882C610.568 86.8504 608.155 81.3428 603.644 77.3564C599.133 73.37 593.573 71.3768 586.964 71.3768ZM676.971 140.143L717.569 29.9914H731.574L772.015 140.143H758.01L747.94 111.818H701.047L690.818 140.143H676.971ZM704.981 101.118H744.006L724.493 46.6715L704.981 101.118ZM787.604 140.143V26.8443H800.822V140.143H787.604ZM822.487 140.143V26.8443H835.705V140.143H822.487ZM883.334 142.031C876.83 142.031 871.428 140.929 867.126 138.726C862.825 136.523 859.626 133.586 857.528 129.914C855.429 126.243 854.38 122.256 854.38 117.955C854.38 109.982 857.423 103.845 863.507 99.544C869.592 95.2429 877.879 93.0923 888.37 93.0923H909.456V92.1481C909.456 85.3293 907.673 80.1889 904.106 76.727C900.539 73.1602 895.766 71.3768 889.786 71.3768C884.646 71.3768 880.187 72.6881 876.411 75.3108C872.739 77.8285 870.431 81.5527 869.487 86.4832H855.954C856.479 80.8183 858.367 76.0451 861.619 72.1636C864.976 68.2821 869.12 65.3447 874.05 63.3515C878.981 61.2534 884.226 60.2043 889.786 60.2043C900.696 60.2043 908.879 63.1417 914.334 69.0164C919.894 74.7862 922.674 82.4968 922.674 92.1481V140.143H910.872L910.085 126.138C907.882 130.544 904.63 134.32 900.329 137.467C896.133 140.51 890.468 142.031 883.334 142.031ZM885.38 130.858C890.416 130.858 894.717 129.547 898.283 126.924C901.955 124.302 904.735 120.892 906.624 116.696C908.512 112.5 909.456 108.094 909.456 103.478V103.321H889.471C881.708 103.321 876.201 104.684 872.949 107.412C869.802 110.035 868.228 113.339 868.228 117.326C868.228 121.417 869.697 124.721 872.634 127.239C875.676 129.652 879.925 130.858 885.38 130.858ZM942.504 140.143V62.0926H954.463L955.565 77.0417C957.977 71.9013 961.649 67.81 966.58 64.7677C971.51 61.7254 977.595 60.2043 984.833 60.2043V74.0519H981.214C976.598 74.0519 972.35 74.8911 968.468 76.5696C964.586 78.1432 961.492 80.8708 959.184 84.7523C956.876 88.6338 955.722 93.984 955.722 100.803V140.143H942.504ZM1032.16 142.031C1024.39 142.031 1017.57 140.247 1011.7 136.681C1005.93 133.114 1001.42 128.236 998.166 122.046C995.019 115.857 993.445 108.828 993.445 100.96C993.445 93.0923 995.071 86.1161 998.323 80.0315C1001.58 73.8421 1006.09 69.0164 1011.86 65.5545C1017.63 61.9877 1024.44 60.2043 1032.31 60.2043C1038.71 60.2043 1044.38 61.5156 1049.31 64.1383C1054.24 66.7609 1058.07 70.4326 1060.79 75.1534V26.8443H1074.01V140.143H1062.05L1060.79 127.239C1058.28 131.016 1054.66 134.425 1049.94 137.467C1045.22 140.51 1039.29 142.031 1032.16 142.031ZM1033.57 130.544C1038.82 130.544 1043.43 129.337 1047.42 126.924C1051.51 124.407 1054.66 120.945 1056.86 116.539C1059.17 112.133 1060.32 106.992 1060.32 101.118C1060.32 95.2429 1059.17 90.1025 1056.86 85.6964C1054.66 81.2904 1051.51 77.881 1047.42 75.4681C1043.43 72.9504 1038.82 71.6915 1033.57 71.6915C1028.43 71.6915 1023.82 72.9504 1019.72 75.4681C1015.74 77.881 1012.59 81.2904 1010.28 85.6964C1008.08 90.1025 1006.98 95.2429 1006.98 101.118C1006.98 106.992 1008.08 112.133 1010.28 116.539C1012.59 120.945 1015.74 124.407 1019.72 126.924C1023.82 129.337 1028.43 130.544 1033.57 130.544Z" fill="#EBE9E2"/>
<path d="M10.9215 29.2483C32.5131 14.5209 62.662 47.333 68.2582 61.8927C73.8508 76.4432 73.6733 100.529 66.4547 116.763C53.6294 145.607 13.2067 141.534 10.9215 123.369C8.58836 104.823 27.3255 101.637 42.1042 99.6095C20.8834 80.955 -19.0781 49.7107 10.9215 29.2483Z" fill="#EBE9E2"/>
<path d="M149.252 29.3747C127.661 14.6473 97.5118 47.4594 91.9156 62.0192C86.323 76.5696 86.5005 100.655 93.7191 116.89C106.544 145.734 146.967 141.661 149.252 123.495C151.585 104.949 132.848 101.764 118.07 99.736C139.29 81.0815 179.252 49.8372 149.252 29.3747Z" fill="#EBE9E2"/>
</svg>
