<svg width="24" height="25" viewBox="0 0 24 25" fill="none" xmlns="http://www.w3.org/2000/svg">
<path d="M12.9697 15.5322C12.6768 15.8251 12.6768 16.2999 12.9697 16.5928C13.2626 16.8857 13.7374 16.8857 14.0303 16.5928L18.0303 12.5928C18.1768 12.4464 18.25 12.2544 18.25 12.0625C18.25 11.9608 18.2298 11.8638 18.1931 11.7754C18.1565 11.687 18.1022 11.6041 18.0303 11.5322L14.0303 7.53217C13.7374 7.23928 13.2626 7.23928 12.9697 7.53217C12.6768 7.82506 12.6768 8.29994 12.9697 8.59283L15.6893 11.3125L6 11.3125C5.58579 11.3125 5.25 11.6483 5.25 12.0625C5.25 12.4767 5.58579 12.8125 6 12.8125L15.6893 12.8125L12.9697 15.5322Z" fill="#BEB8AA"/>
</svg>
